<svg width="27" height="29" viewBox="0 0 27 29" fill="none" xmlns="http://www.w3.org/2000/svg">
<path d="M25.2242 27.6899C25.2242 25.6446 25.2242 24.622 24.9717 23.7899C24.4034 21.9164 22.9373 20.4503 21.0638 19.8819C20.2316 19.6295 19.209 19.6295 17.1638 19.6295H9.83623C7.791 19.6295 6.76839 19.6295 5.93627 19.8819C4.06275 20.4503 2.59663 21.9164 2.0283 23.7899C1.77588 24.622 1.77588 25.6446 1.77588 27.6899M20.0948 7.90537C20.0948 11.5476 17.1422 14.5002 13.5 14.5002C9.85779 14.5002 6.90519 11.5476 6.90519 7.90537C6.90519 4.26315 9.85779 1.31055 13.5 1.31055C17.1422 1.31055 20.0948 4.26315 20.0948 7.90537Z" stroke="#397789" stroke-width="2" stroke-linecap="round" stroke-linejoin="round"/>
</svg>
