<svg width="47" height="87" viewBox="0 0 47 87" fill="none" xmlns="http://www.w3.org/2000/svg">
<path fill-rule="evenodd" clip-rule="evenodd" d="M23.6575 28.1448C23.2709 28.1448 23.2525 28.0773 22.9887 28.0651C22.6328 28.0528 22.6819 28.0098 22.4365 27.9546C21.829 27.8258 21.0988 27.3962 20.6632 26.9851L20.4423 26.7704C19.933 26.2427 20.0066 26.2304 20.6325 25.8255C20.6877 25.7948 20.8104 25.7334 20.8718 25.715C21.0497 25.8316 21.2338 26.0586 21.3934 26.2182C21.737 26.5556 22.6205 27.0281 23.1053 27.0465C23.5102 27.0649 23.9643 27.1508 24.4245 26.9913C25.081 26.7704 25.4369 26.6354 25.9953 26.1261C26.0014 26.12 26.0259 26.1016 26.0321 26.0893C26.2714 25.85 26.3327 25.623 26.5966 25.7886L27.1856 26.2611C27.1488 26.4022 27.0445 26.5065 26.9524 26.617C26.9463 26.6231 26.9402 26.6293 26.934 26.6354C26.6457 26.979 26.253 27.3042 25.8603 27.5251L25.1056 27.8687C24.7619 27.9976 23.9888 28.1448 23.6575 28.1448ZM29.2657 21.2849C29.0693 21.2849 28.8975 21.2481 28.7503 21.2113C28.2655 21.0947 27.8912 20.4995 27.8912 20.1866C27.8912 19.7448 27.8606 19.2601 28.3576 18.8858L28.6889 18.714C28.7012 18.7079 28.7073 18.7017 28.7196 18.7017C28.7318 18.6956 28.7625 18.6833 28.7748 18.6772C28.9159 18.6404 29.1798 18.622 29.3209 18.6404L29.6522 18.7017C29.6645 18.7017 29.6706 18.7079 29.6829 18.714C29.8915 18.7938 30.0204 18.8674 30.1738 19.0392C30.2229 19.0944 30.2719 19.1619 30.3088 19.2171C30.3394 19.2601 30.4008 19.3705 30.4192 19.4196C30.5665 19.7571 30.5297 20.1314 30.4131 20.475C30.2597 20.9229 29.7627 21.2849 29.2657 21.2849ZM16.7976 19.9903C16.7976 19.5239 16.8896 19.2724 17.1167 19.0208C17.5646 18.5361 18.3684 18.4992 18.8286 18.8244L18.9145 18.8919C18.9206 18.8981 18.9329 18.9042 18.939 18.9103L19.0801 19.0453C19.9269 20.07 19.0004 21.6776 17.6014 21.1867C17.5093 21.1499 17.3682 21.0702 17.3007 21.0149C16.9939 20.7695 16.7976 20.4382 16.7976 19.9903ZM23.4243 8.30756C23.4243 8.61436 23.5041 8.91501 23.7066 9.16045C24.1054 9.64518 24.8233 9.58996 25.0933 8.99478C25.1608 8.84752 25.1485 8.71253 25.1485 8.54073H25.1853C25.1853 8.76162 25.2405 8.78616 25.1915 8.97637C25.1546 9.13591 25.1792 9.03773 25.1301 9.15431C24.8601 9.8538 24.0195 9.77404 23.6575 9.48565C23.6514 9.47951 23.6391 9.47338 23.6329 9.46724C23.4366 9.30157 23.3077 9.17272 23.1973 8.92115C22.8107 8.01304 23.4121 7.00062 24.3386 6.75519C24.7681 6.64474 24.7435 6.66315 25.1853 6.66315C25.4246 6.66315 25.8235 6.84109 26.0075 6.93927L26.0812 6.98222C26.4186 7.17243 26.7254 7.55899 26.8911 7.89646C27.0936 8.31984 27.1917 8.85366 27.0629 9.31998C26.9586 9.66973 26.8052 10.0501 26.5536 10.3447L26.2407 10.6576C26.2346 10.6637 26.2284 10.6699 26.2223 10.676C26.0321 10.8601 25.8234 10.9828 25.5842 11.0932L25.5289 11.1178C25.0074 11.3448 24.4245 11.4614 23.8538 11.4859L23.1543 11.443C23.0316 11.4246 22.9764 11.3816 22.8476 11.351C22.5592 11.2773 22.2462 11.2098 21.9763 11.0871C21.964 11.0871 21.9579 11.081 21.9456 11.0748L21.8413 11.0258C21.829 11.0196 21.7983 11.0073 21.786 11.0012C21.2093 10.7374 20.6632 10.271 20.2644 9.78017C20.2582 9.77404 20.2337 9.74336 20.2275 9.73722C20.1723 9.66359 20.1232 9.58382 20.0741 9.49792C19.9576 9.30771 19.9085 9.16045 19.8533 8.93342C20.0435 8.97637 20.111 9.12977 20.2459 9.24635L21.0252 9.87835C21.9026 10.5287 22.9212 10.8171 24.0134 10.8171C24.3815 10.8171 24.8233 10.7128 25.1424 10.5778C25.1485 10.5717 25.1608 10.5717 25.173 10.5656C25.5657 10.3999 25.8909 10.1606 26.1241 9.79244C26.3389 9.44884 26.4432 9.19113 26.4432 8.70026C26.4432 8.28916 26.2161 7.89033 25.9155 7.62035L25.6148 7.41173C25.2528 7.21538 24.9031 7.15402 24.4981 7.22765C24.3386 7.2522 24.3447 7.24606 24.222 7.30742L24.0502 7.40559C23.8906 7.5099 23.7434 7.60808 23.6329 7.77374C23.5777 7.85965 23.4243 8.19712 23.4243 8.30756ZM21.9333 2.26987C21.9333 3.03072 21.9026 3.2332 22.2831 3.84065C22.7862 4.65672 24.0747 4.90216 24.7926 4.22721L24.8294 4.1904C24.8417 4.17813 24.8601 4.15358 24.8663 4.14745C25.1853 3.77316 25.2835 3.3866 25.1424 2.90187C25.0565 2.59507 24.7251 2.19011 24.3631 2.19011C24.0931 2.19011 23.7434 2.18397 23.6575 2.50303C23.8477 2.61348 24.0502 2.3435 24.4245 2.52144C24.8172 2.70552 24.8847 3.23934 24.7129 3.5584L24.6699 3.63817C24.6208 3.73021 24.5656 3.79157 24.4674 3.8652C24.0134 4.19653 23.4121 4.08609 23.0194 3.69339C22.9764 3.64431 22.9212 3.60135 22.8844 3.55227C22.5592 3.11662 22.5469 2.46008 22.8353 1.99376C23.185 1.43539 23.8232 1.17155 24.4797 1.17155C24.6454 1.17155 24.7865 1.24518 24.9215 1.27586C25.0994 1.32495 24.989 1.282 25.124 1.34949L25.5719 1.6072C25.578 1.61333 25.5903 1.61947 25.5964 1.62561C25.9155 1.88945 26.2161 2.23306 26.3511 2.63802C26.5352 3.17798 26.5843 3.76089 26.4432 4.31312L26.3695 4.54628C26.3143 4.72422 25.9768 5.41757 25.7744 5.48507C25.6026 5.48507 25.2712 5.43598 25.1178 5.39916C24.357 5.22122 22.6267 5.35008 21.786 5.45439L20.5589 5.71823C20.4239 5.76118 20.3196 5.76118 20.1785 5.81027L16.8651 7.12334C16.7915 7.16629 16.7792 7.17243 16.7178 7.20924C16.1042 7.55899 15.5029 7.91487 14.9691 8.36279L13.8094 9.3568C13.7542 9.41202 13.7235 9.43656 13.6683 9.49179L12.5148 10.7742C12.4411 10.8662 12.392 10.9399 12.3184 11.038C11.8214 11.7007 11.3551 12.3879 10.9992 13.1365L10.766 13.6028C10.7231 13.6826 10.7169 13.6826 10.6863 13.7685L10.4776 14.2962C10.4531 14.3637 10.4286 14.4005 10.4102 14.4618L10.2752 14.8423C10.2261 14.9773 10.2015 15.0693 10.1647 15.1981L9.86406 16.2351C9.85793 16.2842 9.86406 16.3149 9.85793 16.3455C9.81497 16.6401 9.4775 16.4989 9.14617 16.6155C9.07254 16.6401 9.07867 16.6462 9.0664 16.6523C8.75961 16.7812 8.43441 16.8732 8.15829 17.0757C7.75946 17.3764 7.36063 17.7629 7.14587 18.2231C6.72863 19.1067 6.5691 19.935 6.77772 20.9168L7.26245 22.2728C7.66129 22.9661 8.32396 23.4325 9.04799 23.7454C9.38546 23.8865 9.93769 23.8743 10.3304 23.8743C10.3733 23.9356 10.4102 23.9908 10.447 24.0706C10.5513 24.3099 10.6188 24.5676 10.7415 24.7885C11.1465 25.5187 11.5023 26.2366 11.9993 26.8992L12.4104 27.4331C12.4166 27.4392 12.4227 27.4515 12.4289 27.4576L12.9075 28.0405C12.9688 28.1019 12.9995 28.1264 13.0608 28.1939L13.6622 28.8075C13.699 28.8382 13.7112 28.8443 13.7481 28.8811L14.4537 29.5438C14.9752 29.9856 15.5397 30.3967 16.1226 30.7403C16.1901 30.7771 16.1717 30.771 16.2392 30.8139C16.5153 31.0103 16.8221 31.1575 17.1167 31.3109C17.7118 31.6177 18.3131 31.9122 18.939 32.1209L20.6141 32.6056C22.1112 32.9247 22.915 32.9308 24.5226 32.9308C24.7803 32.9308 24.8785 32.8633 25.1117 32.851C25.3326 32.8388 25.5289 32.8203 25.7069 32.7774C25.9032 32.7344 26.075 32.7344 26.2714 32.6792C26.3511 32.6608 26.4739 32.6363 26.5291 32.624C26.707 32.5995 26.6763 32.5933 26.8113 32.5565L29.2043 31.7711C29.2902 31.7282 29.235 31.7466 29.3332 31.7036L29.7872 31.4889C29.8731 31.4459 29.9099 31.4275 29.9958 31.3907C30.0204 31.3784 30.0817 31.3539 30.1063 31.3416C31.0512 30.8139 31.585 30.4887 32.4563 29.8076C32.53 29.7463 32.579 29.7156 32.6588 29.6604L33.7142 28.7155C33.7449 28.6909 33.7694 28.6602 33.7939 28.6418C33.8308 28.605 33.8369 28.605 33.8798 28.5621L34.972 27.3042C34.9782 27.2981 34.9843 27.2919 34.9904 27.2797C34.9904 27.2735 35.0027 27.2674 35.0027 27.2613L35.1254 27.1079C35.1929 27.022 35.2175 26.9974 35.2788 26.9054C35.8188 26.12 35.8617 25.9973 36.3096 25.2303L36.6287 24.5737C36.6901 24.4449 36.6839 24.4756 36.7269 24.3222C36.9723 23.5368 37.0521 24.0951 38.0952 23.7638C38.4081 23.6656 38.6904 23.5184 38.9726 23.3466L39.4942 22.9293C39.7703 22.6594 40.0157 22.328 40.1875 21.9721L40.4268 21.3524C40.6354 20.7204 40.5925 20.2357 40.5925 19.5607C40.5925 19.3583 40.5863 19.5178 40.5434 19.3767L40.3961 18.8122C40.298 18.5115 40.1568 18.2047 39.9789 17.9409C39.715 17.5543 39.3469 17.1923 38.9419 16.9775C38.629 16.8119 38.267 16.6339 37.9172 16.591C37.2423 16.4989 37.5675 16.6585 37.3098 15.7872C37.273 15.6583 37.2423 15.5172 37.1932 15.3945L36.9723 14.7134C36.9662 14.7073 36.9662 14.695 36.96 14.6827L36.7637 14.1796C36.7207 14.0998 36.7576 14.1796 36.7269 14.0998C36.7085 14.063 36.7085 14.0446 36.6962 14.0139L36.4078 13.3942C36.0397 12.5229 35.15 11.1669 34.5241 10.4551C34.4812 10.3999 34.4627 10.3876 34.4137 10.3324C34.4075 10.3263 34.4014 10.314 34.3953 10.3079L34.34 10.2465C34.0823 9.93357 33.8185 9.63291 33.5056 9.3568L33.1374 9.02546C32.7508 8.63276 32.2722 8.30143 31.8305 7.97623L30.8119 7.34423C30.2535 7.0129 29.6584 6.73065 29.057 6.47294C28.9343 6.42385 28.8546 6.38704 28.7257 6.33182L26.9095 5.75504C26.7929 5.72436 26.7745 5.68141 26.8236 5.56483C26.8727 5.44825 26.842 5.53415 26.8727 5.48507C27.382 4.6874 27.4863 3.5584 27.2531 2.63189L27.1917 2.46008C27.1917 2.44781 27.1856 2.44168 27.1795 2.4294C27.1795 2.42327 27.1733 2.411 27.1733 2.40486L26.75 1.6072C26.3879 1.11633 25.8296 0.662275 25.2221 0.515014C24.5656 0.355482 24.0195 0.300259 23.3507 0.588645L22.7187 0.975204C22.7064 0.98134 22.7003 0.987476 22.6942 0.993612C22.688 0.999748 22.6635 1.02429 22.6512 1.03043L22.4549 1.22677C22.2585 1.49675 22.1358 1.78514 22.0008 2.06125C21.9579 2.15329 21.9333 2.14715 21.9333 2.26987Z" fill="#397789"/>
<path fill-rule="evenodd" clip-rule="evenodd" d="M13.5824 36.6553C13.6253 36.7289 13.6253 36.5632 13.6131 36.7289C13.6069 36.8148 13.6069 36.7657 13.5824 36.8087V36.6553ZM0.917969 43.5949C0.917969 44.2944 0.967056 44.8037 1.3168 45.4296L1.71563 45.9266C1.72177 45.9327 1.73404 45.945 1.74017 45.9511L2.49489 46.5217C3.32936 46.9022 4.2252 46.9574 5.09036 46.6322L5.50146 46.4481C6.11505 46.08 6.60592 45.4909 7.10292 44.9939L10.1402 41.9567C10.2506 41.8462 10.3243 41.7664 10.4347 41.6621L10.7415 41.3799C11.5576 40.6313 11.4901 40.6681 11.9441 39.8336L12.4779 38.8396C12.5577 38.6985 12.6068 38.5697 12.6866 38.4224L12.8952 38.042C12.9259 37.9745 12.9627 37.9008 12.9995 37.8395C13.0363 37.7781 13.0854 37.6984 13.1161 37.637C13.1406 37.5879 13.1283 37.6002 13.1529 37.5572C13.1529 37.545 13.159 37.5327 13.159 37.5266L13.2449 37.3732C13.3186 37.2198 13.3983 36.9559 13.5456 36.8516C13.5456 37.0296 13.4965 37.1155 13.4474 37.2627L13.0179 38.7967C12.9013 39.2569 12.797 39.7355 12.6436 40.1834C12.6007 40.2877 12.5945 40.3245 12.5577 40.4534C12.5209 40.5761 12.5393 40.4902 12.5148 40.5699C12.5148 40.5761 12.5086 40.5884 12.5086 40.5945L12.0914 42.1039C12.0423 42.245 12.073 42.2512 12.0423 42.4046C12.0116 42.515 12.0484 42.38 11.9993 42.515C11.9871 42.5457 11.9564 42.6439 11.9503 42.6684L11.5207 44.3558C11.4839 44.4908 11.4533 44.5337 11.4348 44.6258L11.3121 45.2025C11.1587 46.08 11.0544 45.7548 12.3307 45.902C12.5577 45.9266 12.527 45.9511 12.6866 45.9756L13.7051 46.2088C13.8524 46.2518 13.8831 46.2702 14.0364 46.3131C14.515 46.4604 14.9323 46.6506 15.3679 46.8653L16.3681 47.4667C17.0492 47.9084 17.6198 48.4975 18.1659 49.0865C18.1843 49.1049 18.1966 49.1233 18.2211 49.1479L18.6383 49.6694C18.6445 49.6756 18.6506 49.6878 18.6506 49.694L19.4176 50.9273C19.7244 51.5716 20.0128 52.222 20.2153 52.9092C20.2582 53.0442 20.2521 53.1239 20.3012 53.2589L20.6018 55.0813C20.6325 55.6458 20.6448 56.1735 20.5957 56.7257C20.5282 57.5663 20.0987 57.3515 23.3016 57.3515C24.4429 57.3515 25.578 57.3515 26.7132 57.3515C26.7622 57.1429 26.6395 56.2962 26.6395 55.8237C26.6395 55.2715 26.707 54.7315 26.7991 54.1854L26.9034 53.6577C26.9463 53.4921 26.9709 53.3448 27.0138 53.1792C27.069 52.9583 27.0997 52.8846 27.1488 52.6944C27.1917 52.541 27.2408 52.3999 27.2961 52.2526L27.8544 50.9641C28.063 50.5407 28.4864 49.8167 28.8055 49.4854C29.0141 49.2583 29.1552 49.0558 29.37 48.835C29.5786 48.6325 29.7688 48.4239 29.9836 48.2275L30.7567 47.5955C31.4316 47.1169 32.2109 46.6383 33.0085 46.3929C33.1497 46.3499 33.3092 46.3008 33.4442 46.2456C34.4137 45.8836 35.4813 45.9204 36.0458 45.7854C36.0826 45.6259 36.0826 45.7486 36.0335 45.5645C35.9538 45.2516 35.9292 44.9878 35.8372 44.7055C35.7329 44.3987 35.5365 43.3556 35.4077 43.0182L34.4198 39.4594C34.383 39.306 34.3953 39.306 34.3523 39.171L34.113 38.3488C34.0823 38.2322 34.0946 38.1647 34.0578 38.0542C34.0026 37.8702 33.9289 37.7168 33.8921 37.5143C33.843 37.2689 33.7694 37.2136 33.7694 36.9252C33.9228 37.0418 35.4629 40.1711 35.647 40.4595C35.7329 40.5945 35.831 40.6743 35.9476 40.7847C36.7576 41.5824 37.543 42.4107 38.3713 43.19L38.6781 43.4661C38.8008 43.5704 38.8806 43.6747 38.9849 43.7913L40.8134 45.6075C41.1754 45.9695 41.5313 46.3254 41.9976 46.5401C42.0283 46.5586 42.0651 46.5708 42.108 46.5892L42.4148 46.712C42.5191 46.7365 42.5866 46.7426 42.6725 46.7672C43.1818 46.9206 43.8936 46.8653 44.3722 46.6629C44.4581 46.626 44.4274 46.6383 44.5133 46.6076C44.9183 46.4604 45.2435 46.2518 45.5441 45.9572C45.7098 45.7916 45.7527 45.7302 45.8816 45.5461L46.0964 45.135C46.2743 44.7301 46.397 44.2883 46.397 43.8281C46.397 43.6072 46.3172 43.239 46.2375 43.0059L45.7527 42.0426C45.7159 41.9873 45.673 41.9382 45.63 41.8892C45.5809 41.8401 45.6055 41.8708 45.5503 41.8094L42.8996 39.1342C42.3903 38.6678 41.924 38.1463 41.4331 37.6554L40.8072 37.0296C40.8011 37.0234 40.795 37.0173 40.7888 37.0111L38.3958 34.5384C38.3713 34.5138 38.3467 34.4893 38.3161 34.4586L36.5735 32.9492C35.9047 32.3786 35.1438 31.9491 34.4259 31.4521C34.2909 31.3539 34.2112 31.3109 34.0578 31.2312C33.9105 31.1514 33.7939 31.0962 33.6405 31.0225L33.2908 30.863C33.2847 30.8569 33.2724 30.8507 33.2663 30.8446C33.254 30.8446 33.2478 30.8385 33.2356 30.8323C33.0024 30.7157 32.8797 30.8998 32.4993 31.1882C32.352 31.2987 32.2784 31.3477 32.125 31.4398L30.5787 32.3602C30.4253 32.4338 30.3333 32.4829 30.186 32.5565C29.4068 32.9431 28.1367 33.4217 27.2838 33.618L25.486 33.9309C25.2896 33.9678 25.0933 33.9371 24.8969 33.9678C24.3508 34.0537 23.7434 34.0291 23.1912 34.023C22.9825 34.023 22.7739 34.0414 22.5776 34.0107C22.4058 33.9862 22.2094 33.9493 22.0499 33.9493C21.7431 33.9371 21.7431 33.9309 21.4854 33.888C21.0682 33.8082 20.6141 33.7775 20.2153 33.6671C19.7244 33.5382 19.2519 33.4339 18.7856 33.2499C18.6752 33.2069 18.6568 33.2192 18.5402 33.1824L17.6627 32.8449C17.178 32.6301 16.7362 32.3663 16.2576 32.1393C15.8465 31.9368 14.9077 31.3293 14.5764 31.0716C14.1346 30.7219 14.288 30.6667 13.8462 30.8814C13.294 31.1575 12.7663 31.4459 12.2632 31.8079C11.895 32.0779 11.5207 32.2927 11.1649 32.5933L10.901 32.7958C10.8335 32.8449 10.7722 32.8756 10.7108 32.9247L10.2015 33.3542C10.177 33.3787 10.1647 33.3848 10.1402 33.4033C9.7168 33.753 9.31797 34.115 8.93755 34.52C8.87619 34.5875 8.87005 34.5998 8.80256 34.6611L6.23163 37.3057C5.78371 37.7659 5.29898 38.2015 4.86333 38.6801C3.82637 39.8275 2.5992 40.8154 1.58678 41.9873C1.42725 42.1775 1.30453 42.3862 1.19408 42.6132C1.145 42.7236 1.15113 42.7175 1.10204 42.8402L0.973192 43.3311C0.936376 43.4599 0.917969 43.4415 0.917969 43.5949Z" fill="#397789"/>
<path fill-rule="evenodd" clip-rule="evenodd" d="M33.7694 75.1517L33.7817 76.1396C33.708 76.7409 33.8737 79.048 33.6958 79.502C33.5976 79.7475 33.4074 79.9377 33.1742 80.042C33.076 80.0911 33.027 80.134 32.9104 80.134H14.3248C14.2021 80.134 13.656 79.8518 13.5579 79.3732C13.521 79.1891 13.5026 79.0725 13.5026 78.8762V67.8193C13.5026 67.5923 13.7358 67.1751 14.0549 67.0401C14.1469 66.9971 14.3126 66.9174 14.4046 66.9174H32.8306C33.1558 66.9174 33.5546 67.1812 33.6896 67.4696C33.7142 67.5187 33.8123 67.7948 33.8123 67.8623V72.409C33.8123 72.9489 33.708 73.7159 33.7878 74.2313C33.8369 74.5504 33.7694 74.8019 33.7694 75.1517ZM4.16998 81.6189C4.16998 82.0852 4.12089 82.3429 4.32338 82.7663C4.50745 83.1651 4.71607 83.4351 5.1149 83.6192C5.84507 83.9505 6.98021 83.8155 7.89445 83.8155H39.3408C40.5802 83.8155 41.6417 83.9996 42.4455 83.4719C42.7953 83.2326 42.9241 82.9504 43.053 82.5945C43.1818 82.2386 43.145 82.4595 43.145 81.895C43.145 81.3735 43.0346 81.0053 43.0223 80.6801L42.556 76.3666C42.4946 76.1396 42.5375 75.9678 42.5007 75.7162C42.4701 75.526 42.4271 75.3051 42.4087 75.1394C42.378 74.894 42.3903 74.7345 42.3473 74.4951C42.2737 74.0718 42.2001 73.0103 42.1326 72.6728C42.059 72.3108 42.1326 72.2372 42.0344 71.7524L41.5006 67.1505C41.4515 66.9174 41.4822 66.7762 41.4454 66.5369C41.427 66.3713 41.3533 66.132 41.3411 65.9356C41.2736 65.0152 41.1938 64.058 40.1998 63.6653C40.1016 63.6224 39.7641 63.5488 39.6169 63.5488H7.66129C7.48948 63.5488 7.23791 63.604 7.10906 63.6592L6.68568 63.9046C6.34821 64.1624 6.26845 64.3035 6.12118 64.6716C6.04142 64.8618 5.94324 65.6227 5.93711 65.819L5.78985 67.0462C5.74076 67.2978 5.7653 67.4082 5.73463 67.6598C5.72235 67.7641 5.68554 67.8255 5.67327 67.9114L5.52601 69.4883C5.50146 69.6969 5.45851 69.9117 5.43397 70.0651C5.40329 70.3044 5.43397 70.4516 5.38488 70.6786C5.29284 71.102 5.32352 71.4334 5.28671 71.599C5.17626 72.1083 5.26216 72.0899 5.18853 72.5194L5.04127 73.7098C5.01673 73.9245 5.01673 74.1025 4.99219 74.3233C4.97991 74.4277 4.9431 74.489 4.92469 74.5749L4.36633 79.7781C4.36019 80.1463 4.26815 80.4838 4.24975 80.993C4.24361 81.2569 4.16998 81.3489 4.16998 81.6189Z" fill="#397789"/>
<path fill-rule="evenodd" clip-rule="evenodd" d="M29.3822 58.7628C29.3822 59.358 29.4866 59.9163 29.7443 60.444C29.8302 60.6281 29.9406 60.8244 30.0756 60.9717C30.1676 61.0637 30.1799 61.1067 30.2719 61.2049C30.8058 61.7571 31.4439 61.9903 31.45 61.9903C32.6772 62.4627 33.6467 62.2173 34.7941 61.708C34.9843 61.6221 35.1622 61.5301 35.3402 61.4258L37.6963 59.6709L38.3774 58.9775C38.3836 58.9714 38.3897 58.9653 38.3958 58.9591C38.402 58.953 38.4081 58.9407 38.4142 58.9346C38.4327 58.9162 38.4511 58.8916 38.4695 58.8732C38.8806 58.3271 39.0769 58.2167 39.5739 57.5111L39.8255 57.1368C39.8316 57.1306 39.8378 57.1184 39.8439 57.1122C40.12 56.7441 40.5557 55.9894 40.7213 55.6028L40.7459 55.5476C40.7766 55.4801 40.752 55.5415 40.7888 55.4678L41.4331 53.6823L41.5374 52.9644C41.5558 52.2158 41.5374 51.6022 41.2245 50.9212C41.0159 50.4548 40.7704 50.0192 40.3777 49.6878L39.9543 49.332C39.1015 48.7429 38.0952 48.4484 36.8005 48.6938C36.6226 48.7306 36.8066 48.6938 36.6778 48.7306L35.9354 48.9699C35.8801 49.0006 35.8863 48.9884 35.8249 49.0129L34.9659 49.4485C34.1682 49.9394 33.4503 50.5775 32.8429 51.2893C32.7815 51.3629 32.7815 51.3691 32.7202 51.4366C32.714 51.4427 32.7018 51.4488 32.6956 51.455L32.5729 51.6084C32.4747 51.7434 32.4134 51.7986 32.3091 51.9336L31.8305 52.584C31.7323 52.719 31.6832 52.8049 31.5973 52.946C31.5605 53.0073 31.5298 53.0564 31.493 53.1117L30.7505 54.3756C30.5174 54.8297 30.1676 55.4862 30.0204 55.9526C29.8547 56.4802 29.5725 57.1613 29.4988 57.7074C29.4682 57.9467 29.4313 57.9467 29.4191 58.2167C29.4129 58.4253 29.3822 58.5112 29.3822 58.7628Z" fill="#397789"/>
<path fill-rule="evenodd" clip-rule="evenodd" d="M5.74076 51.9827C5.74076 52.6944 5.72235 53.216 5.9187 53.8848L6.34207 55.1488C6.53229 55.6335 6.78999 56.0937 7.05997 56.5416L7.79014 57.6154C8.12147 58.0572 8.44054 58.499 8.82096 58.8978C8.8271 58.9039 8.83323 58.9101 8.83937 58.9162L9.23207 59.3089C9.2382 59.315 9.24434 59.3273 9.25047 59.3334C9.25661 59.3396 9.26274 59.3457 9.26888 59.3518L10.2997 60.3213C10.3058 60.3213 10.3181 60.3336 10.3243 60.3397L10.9378 60.7815C11.6189 61.2294 12.1159 61.5239 12.8584 61.843C14.2328 62.4259 15.7115 62.4014 16.8896 61.3644C16.9633 61.3092 16.9019 61.3705 16.9755 61.2908C17.3253 60.941 17.5462 60.5483 17.7241 60.082C17.9327 59.5114 17.8959 58.9285 17.8959 58.2965C17.8959 58.1247 17.8039 57.8117 17.7732 57.6338C17.7057 57.2718 17.583 56.8852 17.4541 56.5416C17.448 56.5355 17.4419 56.5232 17.4419 56.5109L16.8405 55.0322C16.5767 54.4186 16.227 53.8296 15.8649 53.2651L14.7359 51.6513C14.6746 51.5777 14.7053 51.6145 14.6378 51.5532C14.6316 51.547 14.6255 51.5409 14.6194 51.5347C14.3616 51.2832 14.1714 50.9641 13.8953 50.7248C13.8524 50.688 13.8401 50.6819 13.791 50.6389C13.6315 50.4978 13.5394 50.3751 13.3676 50.2339L13.0915 50.0008C12.8093 49.7553 12.4902 49.559 12.1589 49.3688C12.0791 49.3258 12.1834 49.3872 12.1037 49.3381L11.4471 49.019C11.3858 48.9945 11.3551 48.9884 11.306 48.9638C11.2262 48.9331 11.2262 48.927 11.1649 48.9086L10.8703 48.8104C10.2936 48.6079 9.41001 48.5527 8.77801 48.7061L8.47122 48.792C7.83309 48.9761 7.22564 49.3565 6.75931 49.829L5.99233 51.0193C5.88802 51.2832 5.74076 51.6943 5.74076 51.9827Z" fill="#397789"/>
<path fill-rule="evenodd" clip-rule="evenodd" d="M17.4603 62.3339C17.5646 62.475 17.7425 62.4136 18.1291 62.4136H29.8547C29.8854 62.2664 29.9161 62.3093 29.7013 62.1314C29.6952 62.1252 29.6829 62.1191 29.6768 62.113C29.6706 62.1068 29.6645 62.1007 29.6584 62.0946L29.3638 61.8C29.3577 61.7939 29.3516 61.7878 29.3454 61.7816C29.3086 61.7387 29.2902 61.7203 29.2534 61.6773C29.1552 61.5546 29.0571 61.4012 28.965 61.2601L28.6705 60.6526C28.5232 60.3029 28.4496 60.1004 28.3821 59.6832C28.2901 59.0389 28.4066 58.4499 28.1673 58.4499H19.1476C18.9267 58.4499 18.9881 58.7812 18.9942 59.0021C18.9942 59.4991 18.9022 60.0452 18.7181 60.4931C18.6813 60.5851 18.669 60.6465 18.6199 60.7447L18.3806 61.211C17.9941 61.8 18.0923 61.6773 17.5584 62.1559L17.4664 62.2786C17.4357 62.3645 17.4296 62.2602 17.4603 62.3339Z" fill="#397789"/>
<path fill-rule="evenodd" clip-rule="evenodd" d="M27.7747 55.7869C27.7747 56.0753 27.8053 56.2594 27.8115 56.4925C27.8237 56.7809 27.8544 56.9834 27.8544 57.235C28.1183 57.3086 27.8421 57.3147 28.3637 57.3147C28.5478 57.3147 28.5048 57.1184 28.56 56.9588C28.7073 56.5171 28.8239 56.0569 28.9896 55.6274C29.0386 55.4985 29.1 55.3635 29.143 55.2347C29.2043 55.0813 29.2473 54.977 29.3209 54.8236C29.3945 54.6702 29.4313 54.5597 29.505 54.4186C29.7013 54.0504 29.867 53.6516 30.1063 53.2896L30.229 53.0626C30.2351 53.0564 30.2535 53.0258 30.2597 53.0135C30.2842 52.9767 30.3026 52.946 30.321 52.9214L30.456 52.7067C30.7628 52.2465 31.0451 51.7556 31.401 51.3323C31.401 51.3261 31.4132 51.32 31.4194 51.3138C31.4255 51.3016 31.4439 51.277 31.45 51.2709L33.119 49.4485C33.5424 49.062 33.9535 48.7859 34.4259 48.4791L35.7329 47.8655C35.8863 47.8164 36.0581 47.8041 36.1869 47.7305C36.3649 47.6323 36.2912 47.528 36.2851 47.3194C36.279 47.0433 36.279 46.9635 36.009 46.9635C35.4936 46.9635 35.0518 47.0187 34.5916 47.1169C34.0026 47.2396 33.5301 47.3869 32.984 47.6262L32.2661 47.9637C31.9164 48.1355 31.585 48.3564 31.2782 48.5895L30.8487 48.9393C30.7812 49.0006 30.7628 49.0129 30.7015 49.0681C30.6831 49.0865 30.6524 49.1111 30.6401 49.1233C30.634 49.1295 30.6278 49.1356 30.6217 49.1418C30.6156 49.1479 30.6033 49.154 30.5972 49.1602L29.5111 50.3873L29.0202 51.1114C28.9834 51.185 28.9711 51.2218 28.9282 51.2954C28.511 52.0195 28.3392 52.6024 28.0876 53.3939C27.8851 54.0198 27.7747 55.1426 27.7747 55.7869Z" fill="#397789"/>
<path fill-rule="evenodd" clip-rule="evenodd" d="M19.5035 55.7869C19.5035 55.4187 19.4912 55.1181 19.4606 54.7683C19.436 54.4493 19.3133 54.0075 19.2581 53.6762L18.4543 51.4979C18.2763 51.1973 18.1413 50.8659 17.9143 50.5898L17.3682 49.8842C17.0676 49.5713 16.8037 49.2154 16.4601 48.9454C16.3865 48.8902 16.3804 48.8718 16.3129 48.8166C15.3373 48.0005 13.9383 47.2887 12.6497 47.1108C12.4964 47.0924 12.343 47.0617 12.1834 47.031C11.9257 46.9819 11.441 47.0003 11.1096 47.0003C10.8029 48.3257 11.1281 47.1906 13.4658 48.8841C13.9015 49.2031 14.331 49.559 14.7053 49.9578L14.7421 50.0008C14.785 50.0437 14.7728 50.0315 14.8157 50.0805L16.7792 52.6269C17.1596 53.1546 17.5216 53.9216 17.81 54.4922C17.8468 54.5597 17.8775 54.6334 17.9143 54.707L18.3868 55.8421C18.6199 56.4741 18.6015 56.4987 18.7549 57.0816C18.804 57.2779 18.8347 57.3822 19.0863 57.3331C19.6324 57.2288 19.4237 56.8545 19.4851 56.4373C19.5158 56.2287 19.5035 56.0017 19.5035 55.7869Z" fill="#397789"/>
<path fill-rule="evenodd" clip-rule="evenodd" d="M36.1256 62.3339C36.2176 62.3768 36.2974 62.4136 36.4385 62.4136H42.4394C42.6787 62.4136 42.8628 62.3523 43.0346 62.3032C43.188 62.2602 43.1573 62.2664 43.28 62.1989C43.642 61.9964 44.0838 61.5362 44.0838 61.1926V59.7077C44.0838 59.4193 43.7709 59.0512 43.5929 58.861C43.5929 58.8548 43.5806 58.8426 43.5745 58.8426L43.4518 58.7321C43.3966 58.6953 43.2861 58.6278 43.2248 58.6033C43.1573 58.5726 43.0714 58.5419 42.9977 58.5174C42.6357 58.3824 40.795 58.4499 40.2795 58.4499C40.163 58.4499 39.9728 58.7935 39.8071 58.9959L39.3224 59.5727C38.4879 60.4747 38.5247 60.4624 37.5859 61.2478C37.4877 61.3337 37.408 61.3951 37.3098 61.481C37.2975 61.4932 37.2668 61.5178 37.2484 61.5362L37.0091 61.6896C36.7637 61.8491 36.7085 61.9166 36.3894 62.0884C36.2115 62.1805 36.2176 62.1559 36.1256 62.3339Z" fill="#397789"/>
<path fill-rule="evenodd" clip-rule="evenodd" d="M3.23119 59.6648V61.1926C3.23119 61.3705 3.20665 61.1312 3.31709 61.4196C3.34777 61.4994 3.38459 61.5669 3.4214 61.6344C3.68524 62.1068 3.96749 62.1927 4.35405 62.3461C4.4645 62.3891 4.50131 62.4136 4.64244 62.4136H11.0728C11.2201 62.4136 11.0851 62.4198 11.1894 62.3707C11.1771 62.248 11.2569 62.2786 10.9624 62.1314C10.8458 62.07 10.7599 62.0148 10.6495 61.935C10.3672 61.7264 10.0788 61.5792 9.74748 61.3092C9.73521 61.2969 9.69839 61.2662 9.67998 61.254L9.63703 61.2171C9.6309 61.211 9.62476 61.2049 9.61862 61.1987C9.55727 61.1496 9.53272 61.119 9.47136 61.0699C9.37319 60.984 9.28115 60.9287 9.18911 60.8428L8.15829 59.8366C7.97421 59.6341 7.36063 58.9162 7.24405 58.7137C7.18269 58.6155 7.12133 58.4499 6.99248 58.4499C6.52615 58.4499 4.61789 58.3885 4.30497 58.5051C4.23747 58.5296 4.14543 58.5603 4.07794 58.591C3.68524 58.7567 3.23119 59.315 3.23119 59.6648Z" fill="#397789"/>
<path fill-rule="evenodd" clip-rule="evenodd" d="M25.0319 73.9368C25.0319 73.3477 24.9828 73.4091 25.1485 72.955C25.4062 72.2371 26.3205 72.1881 26.7377 72.6973C26.8052 72.7771 26.7438 72.6912 26.7991 72.7955C27.1733 73.4398 27.2102 74.9492 26.1057 75.0965C25.9462 75.1149 25.7866 75.0965 25.6516 75.0412L25.4001 74.8633C25.2774 74.7406 25.1976 74.581 25.1362 74.4154C25.0871 74.2804 25.0319 74.1454 25.0319 73.9368ZM23.6575 73.7036L23.7925 74.5872C23.8907 74.851 23.9152 75.0535 24.0993 75.3358C24.3018 75.6364 24.3263 75.6671 24.6208 75.8757C24.7313 75.9555 24.811 76.0046 24.946 76.0598C25.3633 76.2255 25.7375 76.2071 26.1609 76.0843C26.3082 76.0414 26.3511 76.0107 26.48 75.9371L26.9893 75.5076C26.9893 75.9862 27.069 76.3298 26.8788 76.7225C26.8052 76.8636 26.6825 76.9556 26.5413 77.017C26.2714 77.1397 25.621 77.1704 25.4123 76.8881L25.2283 76.5629C24.2956 76.5629 24.13 76.4464 23.9704 76.4464C23.8416 76.4464 23.817 76.5936 23.8232 76.7102C23.8232 76.7286 23.8416 76.8513 23.8538 76.9188C23.8722 77.0845 23.8538 76.9924 23.8968 77.109L23.9275 77.1949C24.1115 77.6797 24.3386 77.8147 24.8724 78.0171C25.6394 78.2994 26.4739 78.1828 27.1856 77.9742C27.4433 77.8944 27.6826 77.7165 27.8606 77.514L28.0814 77.1827C28.3023 76.7163 28.3207 76.2255 28.3207 75.7039C28.3207 75.2621 28.2901 72.6544 28.3392 72.3476C28.5171 71.1756 28.2839 71.3904 27.3451 71.3904C27.0138 71.3904 27.1058 71.6481 27.1058 71.9794C27.0384 71.9304 27.0445 71.9365 26.9831 71.869C26.9402 71.826 26.9647 71.8506 26.9279 71.8076L26.8911 71.7647C26.1548 71.0161 24.9153 71.1143 24.179 71.9856L23.9766 72.3292C23.8047 72.6667 23.7618 72.8753 23.7311 73.1882C23.7127 73.3477 23.6575 73.5134 23.6575 73.7036Z" fill="#397789"/>
<path fill-rule="evenodd" clip-rule="evenodd" d="M18.9942 69.703C18.9942 70.5866 18.9329 75.6978 19.031 76.1334C19.2581 76.1518 20.1969 76.293 20.3012 76.0291C20.3748 75.8573 20.3257 74.8019 20.3257 74.5258C20.608 74.3786 20.6755 74.1454 20.8718 74.0963C20.9025 74.219 20.9393 74.2497 21.0068 74.354L21.4424 75.213C21.4915 75.3051 21.5345 75.3787 21.5713 75.4707C21.6265 75.5996 21.6388 75.6548 21.7001 75.7775C21.9763 76.2868 21.8413 76.1702 23.228 76.1702C23.3139 76.1702 23.3139 76.1396 23.3814 76.0905C23.363 75.8819 23.3936 76.0659 23.2893 75.8757C23.2832 75.8696 23.2771 75.8573 23.2771 75.8512L23.2096 75.7162C23.1421 75.5935 23.0623 75.483 22.9825 75.3542C22.688 74.8633 22.4978 74.4338 22.1542 73.8754C22.0683 73.7404 22.0008 73.6545 21.9272 73.5134L21.7001 73.1514L22.4978 72.3476C23.5593 71.2247 23.7557 71.3904 21.9333 71.3904C21.5222 71.3904 21.4854 71.734 21.0988 72.1267L20.5037 72.7832C20.473 72.8201 20.4852 72.8078 20.4484 72.8446C20.3809 72.9182 20.4055 72.906 20.3257 72.955V69.8994C20.3319 69.4515 20.473 69.5435 19.1476 69.5435C19.0556 69.5435 18.9942 69.611 18.9942 69.703Z" fill="#397789"/>
<path fill-rule="evenodd" clip-rule="evenodd" d="M34.7511 85.1102C34.7511 85.8036 34.6346 86.3497 35.1991 86.6258C35.5488 86.7914 38.8622 86.7178 39.3408 86.7178C40.0832 86.7178 40.0402 85.8097 40.0648 85.4477C40.1139 84.7421 39.985 84.92 38.5922 84.9139C38.2793 84.9139 38.0154 84.9568 37.6534 84.9507H35.1009C34.9229 84.9507 34.7511 84.9323 34.7511 85.1102Z" fill="#397789"/>
<path fill-rule="evenodd" clip-rule="evenodd" d="M7.31154 84.9507C7.15201 85.2759 7.19496 86.1717 7.49562 86.4478C7.77173 86.6994 7.96194 86.681 8.28714 86.681L9.64931 86.6871C10.6188 86.7362 10.8703 86.6871 11.7785 86.681C11.9564 86.681 12.0177 86.6626 12.1773 86.5705C12.2939 86.503 12.343 86.454 12.4227 86.3435C12.6313 86.0674 12.5393 85.8342 12.5638 85.5029C12.5761 85.3372 12.6007 85.2575 12.6007 85.0304C12.3798 84.8832 12.4104 84.9139 12.0546 84.9139C11.7907 84.9139 11.6251 84.9261 11.4226 84.9507H7.31154Z" fill="#397789"/>
</svg>
