<svg width="71" height="87" viewBox="0 0 71 87" fill="none" xmlns="http://www.w3.org/2000/svg">
<path fill-rule="evenodd" clip-rule="evenodd" d="M51.3572 2.55048C51.3572 3.16083 51.2931 5.08827 51.3957 5.55085C51.7742 5.73074 52.7491 5.62795 53.2815 5.62795H57.2969C57.855 5.62795 58.0602 5.64722 58.336 6.06483C58.4772 6.27042 58.4707 6.67518 58.3553 6.89363C58.3553 6.89363 58.3168 6.95145 58.3104 6.97072C58.2847 7.0157 58.2911 7.00927 58.2655 7.04782C58.0923 7.34979 57.8101 7.43973 57.3803 7.43973C56.5529 7.43331 51.8255 7.37548 51.3957 7.47828C51.3187 7.82522 51.3187 11.3203 51.3957 11.6672C51.6779 11.8022 51.6844 11.7122 52.0115 11.7058C52.2617 11.6994 52.5439 11.6994 52.794 11.7058L56.4374 11.7443C56.9505 11.7443 57.3611 11.6544 57.8101 11.77C58.0089 11.8214 58.1372 11.8921 58.2591 12.0591L58.3938 12.2904C58.5606 12.7466 58.3168 13.4597 57.8357 13.5111L55.4175 13.5561C54.1026 13.5561 52.794 13.5561 51.4791 13.5561C51.4214 13.6396 51.3572 13.6589 51.3572 13.7617V17.578C51.3572 17.9571 51.9025 17.8222 52.2168 17.8222L57.7523 17.8671C57.964 17.8607 58.0025 17.8222 58.2398 17.8222L59.8049 17.8607C60.1128 17.8864 60.3245 17.7708 60.6516 17.9121L60.9916 18.1049C61.3572 18.4582 61.2931 19.1007 60.9467 19.4219C60.5682 19.7817 59.9845 19.6725 59.4714 19.6725C57.669 19.6725 55.8665 19.6725 54.0641 19.6725C53.4034 19.6725 51.9025 19.5954 51.3957 19.7111C51.3187 20.058 51.3187 23.598 51.3957 23.9386C51.7357 24.0992 54.6799 24.0221 55.0455 24.0221C55.3983 24.0221 57.6112 23.9578 57.8421 24.0542L58.2527 24.3819C58.4258 24.6132 58.5028 25.0179 58.3745 25.3006C58.2719 25.5126 58.1821 25.6218 57.9704 25.7182L57.887 25.7568C57.6561 25.866 57.2905 25.8274 57.0147 25.8274L52.2617 25.866C51.973 25.866 51.3572 25.6861 51.3572 26.1166V29.8108C51.3572 30.0678 51.415 30.1513 51.6459 30.177C52.127 30.2284 58.2783 30.177 59.1443 30.177C59.5804 30.177 60.0679 30.1577 60.4977 30.177C60.8056 30.1899 61.1904 30.5625 61.1904 30.8773C61.1904 31.3142 61.2289 31.4106 60.8761 31.7511C60.7607 31.8667 60.812 31.8282 60.6452 31.8924C60.5362 31.931 60.44 31.9888 60.3309 31.9888H52.3001C51.9473 31.9888 51.6651 31.8988 51.3957 32.0273C51.2931 32.4835 51.3572 35.1626 51.3572 35.8437C51.3572 36.0493 51.3957 36.03 51.3957 36.2163C51.7357 36.2934 51.8896 36.2934 52.2617 36.2934H57.0917C57.406 36.2934 57.7267 36.2805 57.9384 36.3898C58.4707 36.6725 58.4066 37.013 58.4066 37.4049C58.4066 37.604 58.15 37.861 58.0282 37.9703C57.8806 38.1116 57.8806 38.0538 57.6305 38.0602C57.4445 38.0666 57.3803 38.1116 57.1879 38.0923L51.4791 38.1052C51.4214 38.1887 51.3572 38.2401 51.3572 38.3879V42.0821C51.3572 42.2299 51.3893 42.3134 51.4406 42.4098C51.9602 42.4098 52.3194 42.4548 52.8325 42.4548H55.6613C55.9884 42.4548 56.2001 42.4098 56.5593 42.4098C57.5022 42.4162 58.4515 42.3841 59.388 42.4098C59.5933 42.4162 59.6061 42.4612 59.7985 42.4548C60.0872 42.4355 60.2155 42.3969 60.549 42.4869C60.9467 42.5961 61.1904 42.9687 61.1904 43.0715C61.1904 43.5084 61.261 43.8297 60.8184 44.0931C60.3181 44.3822 59.7857 44.1509 59.1058 44.228C58.3553 44.3115 53.1789 44.2794 51.8062 44.2601C51.524 44.2537 51.3572 44.2151 51.3572 44.5043V48.282C51.3572 48.4683 51.4086 48.5262 51.601 48.5326C53.5766 48.6161 55.565 48.5583 57.5471 48.5647C57.8101 48.5711 58.0731 48.6868 58.2142 48.886C58.4258 49.1815 58.4066 49.2265 58.4066 49.5991C58.4066 49.7661 58.3617 49.7533 58.304 49.8689L58.2783 49.9203C58.2334 50.0167 58.2655 49.9846 58.1885 50.0745C58.1821 50.081 58.1757 50.0874 58.1693 50.0938C58.1629 50.1002 58.15 50.1131 58.1436 50.1131C58.041 50.2159 57.8806 50.3315 57.7459 50.3765C57.6112 50.415 57.4765 50.4215 57.3033 50.4215L51.4406 50.415C51.3893 50.5178 51.3572 50.5949 51.3572 50.7491V54.3599C51.3572 54.861 51.8191 54.7004 52.1334 54.7004C52.236 54.7004 52.2617 54.7261 52.422 54.7261H57.0917C57.6561 54.7261 58.1051 54.6875 58.6953 54.6875C59.2148 54.6875 59.8691 54.7132 60.2475 54.7132C60.4335 54.7068 60.6901 54.7646 60.8697 54.8867C61.2353 55.1373 61.1904 55.4906 61.1904 55.8761C61.1904 55.966 61.075 56.1138 61.0173 56.1973C61.0108 56.2038 61.0044 56.2102 61.0044 56.2166L60.9467 56.2873C60.5362 56.6856 59.6959 56.5314 59.1443 56.5314C58.227 56.5314 52.2424 56.4865 51.6908 56.5379C51.4278 56.5636 51.3572 56.6085 51.3572 56.9041V60.5598C51.3572 60.7075 51.4214 60.7525 51.4791 60.8425C51.6779 60.8425 51.8511 60.881 51.9666 60.8746C52.1334 60.8746 51.973 60.8489 52.1654 60.8553C53.3329 60.9131 54.5837 60.8425 55.7447 60.8425C56.2578 60.8425 57.7139 60.7461 58.0538 60.9966C58.15 61.0673 58.4066 61.3307 58.4066 61.4592V61.9925C58.4066 62.121 58.1629 62.3908 58.0666 62.4743C58.0602 62.4808 58.0474 62.4872 58.041 62.4936L57.9961 62.5322C57.7203 62.7442 55.7126 62.6478 55.2892 62.6478H53.8973C53.7113 62.6607 53.6728 62.6928 53.4483 62.6928C53.0891 62.6928 52.8646 62.6414 52.5439 62.6478C52.3386 62.6542 52.2937 62.6928 52.1398 62.6928C51.9089 62.6864 51.3572 62.5129 51.3572 62.9369V66.6761C51.3572 67.0424 51.8319 66.9203 52.4605 66.9203C52.9031 66.9203 53.288 66.9588 53.7754 66.9588H59.9204C60.0294 66.9588 60.1513 66.9524 60.2539 66.9588L60.4335 66.9845C60.4464 66.9845 60.4528 66.991 60.4656 66.991C60.7863 67.1066 60.9339 67.203 61.0942 67.5114C61.2482 67.8198 61.2289 68.1603 61.0044 68.4558C60.6324 68.9505 59.8434 68.7706 59.2661 68.7706H52.5054C52.1847 68.7706 51.3572 68.6678 51.3572 68.9698V72.8311C51.3572 73.2101 51.8704 73.0752 52.1334 73.0752L53.1212 73.1202C54.1282 73.1716 56.0974 73.1202 57.22 73.1202C57.3611 73.1202 57.5727 73.1073 57.7074 73.1202C58.4194 73.1844 58.6568 74.206 58.1757 74.6943C57.9512 74.9127 57.8037 74.9256 57.3803 74.9256H52.2617C52.0885 74.9256 51.3572 74.8356 51.3572 75.0926C51.3572 75.7929 51.2931 78.7419 51.3957 79.1916C51.4983 79.243 51.5753 79.2751 51.7229 79.2751L57.3418 79.2559C57.5214 79.2559 57.8357 79.2494 57.9704 79.3458C58.4643 79.6799 58.4066 79.8662 58.4066 80.4252C58.4066 80.5215 58.2911 80.65 58.227 80.74C58.1821 80.7978 58.0089 80.9327 57.9512 80.9584C57.8101 81.0355 57.3354 81.0869 57.0981 81.0869L51.6844 81.0805C51.5048 81.0805 51.3572 81.0741 51.3572 81.2475C51.3572 81.845 51.2867 84.1451 51.415 84.5948L51.5432 84.9161C51.5946 85.0189 51.5625 84.9418 51.6074 85.0189C51.6074 85.0317 51.6138 85.0382 51.6202 85.0446L51.9987 85.5714C52.2039 85.7963 52.422 85.9505 52.6786 86.079L53.3264 86.2974C54.1924 86.4066 65.8216 86.336 67.7074 86.336C67.964 86.336 68.7722 86.3295 68.9646 86.2781L69.4585 86.1175C69.7472 85.9762 70.0294 85.7963 70.2667 85.5714L70.3117 85.5329C70.5554 85.2887 70.9467 84.5756 70.9467 84.2415V2.42841C70.9467 2.29349 70.9338 2.26137 70.8889 2.15857L70.6388 1.58676C70.4079 1.182 70.0679 0.860764 69.6638 0.635897C69.4072 0.488127 69.2212 0.41103 68.8556 0.417455C68.3938 0.417455 68.0089 0.378906 67.5022 0.378906H53.9807C53.7434 0.378906 53.6151 0.391756 53.4419 0.41103C53.0955 0.443154 53.211 0.398181 52.9352 0.520251C52.8454 0.5588 52.8005 0.5588 52.7235 0.590924C52.6465 0.623048 52.7042 0.597349 52.6401 0.635897L52.3643 0.809366C51.9923 1.04708 51.8896 1.24625 51.633 1.59319C51.4406 1.84375 51.3572 2.24852 51.3572 2.55048Z" fill="#397789"/>
<path fill-rule="evenodd" clip-rule="evenodd" d="M16.9314 32.2715C16.9314 32.0916 16.9763 31.9824 17.0404 31.8539C17.1302 31.674 17.1174 31.6547 17.2778 31.5134C17.56 31.2499 18.1694 31.2821 18.4003 31.4555C18.7402 31.7061 18.8365 31.8474 19.1957 32.098L19.7665 32.4257C20.2669 32.6634 20.1899 32.5991 20.6389 32.7019C21.3188 32.8561 21.0494 32.8047 21.8448 32.8047C22.1334 32.8047 22.8647 32.5734 23.179 32.4193C23.2816 32.3679 23.2816 32.3743 23.3714 32.3229L24.263 31.6547C24.5388 31.417 24.6414 31.327 25.0006 31.327C25.5459 31.327 25.9436 31.796 25.9436 32.1494C25.9436 32.7405 25.9885 32.3807 25.8409 32.7405C25.7768 32.9011 25.7832 32.869 25.6742 32.9846C25.6677 32.9911 25.6613 33.0039 25.6549 33.0103C25.1225 33.5757 24.4234 33.9612 23.7178 34.2696L23.4612 34.3788C23.0571 34.5137 23.3265 34.4752 22.839 34.5394C22.5696 34.5716 22.6658 34.6936 21.7678 34.6936C20.4849 34.6936 21.0815 34.6936 20.0423 34.533L19.4137 34.3467C19.2983 34.2953 19.2662 34.2696 19.1251 34.2182C18.7723 34.0833 18.3682 33.852 18.0475 33.6592L17.3611 33.1131C17.1366 32.8883 16.9314 32.6184 16.9314 32.2715ZM13.1213 25.3327C13.1213 24.8509 13.2752 24.3305 13.6216 23.9899C13.9423 23.6751 14.2566 23.4053 14.7569 23.4053C15.1674 23.4053 15.3406 23.4952 15.6164 23.6559C15.6229 23.6623 15.6357 23.6623 15.6421 23.6687C15.6485 23.6751 15.6613 23.6816 15.6678 23.6816C15.6742 23.688 15.687 23.6944 15.6934 23.6944L16.1168 24.0606C16.2579 24.2662 16.2707 24.3369 16.3477 24.5232C16.4439 24.7481 16.476 24.9472 16.476 25.2942C16.476 25.4741 16.4631 25.5576 16.4503 25.6797C16.4182 25.9302 16.3669 26.1037 16.2386 26.3286C16.0911 26.592 16.1873 26.4892 15.9821 26.7269C15.9821 26.7333 15.9692 26.7462 15.9628 26.7526C15.7896 26.9582 15.5972 27.106 15.3406 27.1959C14.9301 27.3308 15.238 27.3051 14.635 27.3051C14.4939 27.3051 14.4619 27.2473 14.3272 27.2023C14.1027 27.1252 13.9487 27.0481 13.7755 26.8939C13.4676 26.637 13.2367 26.1294 13.1597 25.7503C13.1277 25.609 13.1213 25.5126 13.1213 25.3327ZM28.0346 23.4053C28.5478 23.4053 29.0096 23.6302 29.3432 24.0285L29.4779 24.2212C29.4843 24.2277 29.4907 24.2341 29.4971 24.2469L29.5356 24.324C29.542 24.3369 29.5484 24.3433 29.5484 24.3497C29.9012 24.9537 29.8307 25.7054 29.5356 26.3029L29.3496 26.6048C29.2726 26.7012 29.2341 26.7783 29.1443 26.8554C28.9647 27.0096 28.8044 27.1252 28.5734 27.1895C28.0988 27.3116 28.2591 27.3887 27.6818 27.2088C27.4894 27.1509 27.5215 27.1702 27.3611 27.0803C27.1174 26.9518 26.9442 26.7719 26.7838 26.547C26.7838 26.5406 26.7774 26.5277 26.771 26.5213L26.7389 26.4699C26.7325 26.4635 26.7133 26.4314 26.7069 26.4249C26.4246 25.9624 26.3541 25.0629 26.5529 24.5875C26.6427 24.3754 26.6748 24.2534 26.8159 24.067L27.3355 23.6045C27.4766 23.5209 27.8165 23.4053 28.0346 23.4053ZM1.06869 25.2942C1.06869 25.6732 1.10076 26.2964 1.22905 26.6562C1.27395 26.7912 1.26753 26.7076 1.31243 26.8618L1.41506 27.1638C1.47279 27.2794 1.43431 27.1895 1.46638 27.2794L1.75503 27.8898C1.76144 27.8962 1.76785 27.9091 1.77427 27.9155C2.03084 28.3395 2.37722 28.7507 2.80057 29.0205L3.42917 29.3803C3.52539 29.4317 3.46124 29.3996 3.53822 29.4317C3.76272 29.5153 4.12834 29.6952 4.35284 29.7208C4.7377 29.7722 4.75694 29.7401 4.86599 30.0678C4.9173 30.2284 4.90447 30.1513 4.9622 30.267L5.44328 31.462C5.55874 31.7832 5.73193 32.098 5.89228 32.4064C6.16169 32.914 6.48882 33.3958 6.79671 33.8841C6.86085 33.9869 6.80954 33.9034 6.86727 33.9805L7.22006 34.488C7.25854 34.5394 7.23288 34.5073 7.27778 34.5523C7.27778 34.5587 7.29061 34.5716 7.29703 34.578L7.98978 35.4389C8.03468 35.4839 8.00902 35.4517 8.05392 35.4967C8.08599 35.5353 8.09882 35.5545 8.13089 35.5867L9.72165 37.1543C9.72807 37.1607 9.73448 37.1672 9.7409 37.1736L10.1322 37.5205C10.1963 37.5719 10.222 37.604 10.2861 37.6554C10.331 37.6876 10.3182 37.6747 10.3631 37.7068L11.7807 38.7027C12.3323 39.0432 12.8968 39.4351 13.4997 39.6921L14.9814 40.341C15.0776 40.3731 15.0905 40.3924 15.1867 40.4245L16.4631 40.8293C16.6556 40.9 16.7518 40.8807 16.925 40.9385C17.4189 41.112 18.0988 41.2083 18.272 41.2726C18.5157 41.369 18.4837 41.324 18.7723 41.3497C19.2085 41.3754 19.3111 41.5167 20.331 41.5103C20.7287 41.5039 21.0109 41.5489 21.4407 41.5489C21.8512 41.5489 22.127 41.5039 22.5055 41.5103L23.6023 41.4589C23.7242 41.4396 23.8974 41.3882 24.0385 41.3625C24.2181 41.3304 24.4169 41.3497 24.5645 41.3176C24.7377 41.2726 24.821 41.2276 25.0199 41.1955L28.9198 39.9684L30.8954 38.8697C30.9596 38.8248 31.0045 38.7926 31.0622 38.7541C31.1264 38.7091 31.1777 38.6834 31.2418 38.6449L34.1154 36.2677C34.4105 35.9465 34.7376 35.6573 35.007 35.3104L35.1738 35.0727C35.1802 35.0663 35.1866 35.0534 35.1931 35.047C35.1995 35.0406 35.2059 35.0341 35.2123 35.0277L35.4881 34.6872C35.5587 34.6037 35.5458 34.6101 35.61 34.5202L36.7902 32.7084C36.7902 32.6955 36.7966 32.6891 36.8031 32.6827L36.8351 32.6313C37.143 32.1623 37.3547 31.5969 37.5856 31.0829C37.6177 31.0122 37.6369 30.9416 37.6626 30.8709L38.0603 29.875C38.1821 29.6887 38.2335 29.753 38.4836 29.7208C38.7338 29.6952 39.0737 29.5281 39.3047 29.4382C39.4329 29.3932 39.3752 29.4189 39.4971 29.3418L40.363 28.7764C40.6132 28.5515 40.8184 28.2881 40.998 28.0183L41.7549 26.1872C41.8191 25.6347 41.8383 24.9537 41.6459 24.4718L41.3508 23.6944C41.3508 23.688 41.3444 23.6751 41.338 23.6687C41.1712 23.3732 41.0237 23.0712 40.7992 22.8142L40.4464 22.4287C40.363 22.3516 40.2925 22.3067 40.1963 22.2296L38.9455 21.5935C38.7659 21.5614 38.7274 21.5164 38.567 21.4779C38.0923 21.3494 38.2976 21.4907 38.1821 20.9639C38.1565 20.8354 38.1052 20.7197 38.0859 20.6041C38.0539 20.3728 38.0603 20.3728 38.0025 20.1993C37.8486 19.7367 37.7588 19.1778 37.5728 18.7409L37.2136 17.7451C37.1943 17.7001 37.1751 17.6166 37.1558 17.5588L36.1231 15.5542C36.0654 15.445 36.0141 15.3743 35.9564 15.2715C35.6613 14.7768 35.3085 14.3271 34.9878 13.8517C34.9878 13.8452 34.9814 13.8388 34.975 13.8324L34.9365 13.781C34.9365 13.7746 34.9301 13.7681 34.9236 13.7617C34.9172 13.7553 34.9108 13.7424 34.9044 13.736L34.8146 13.6204C34.7248 13.4919 34.6992 13.4854 34.6093 13.3762L34.3848 13.1064C34.3784 13.1 34.372 13.0935 34.3656 13.0871C33.9936 12.6888 33.6664 12.2583 33.2495 11.9049L32.7364 11.4359C32.7299 11.4295 32.7171 11.4167 32.7107 11.4167L32.5375 11.2625C32.1975 10.9926 31.8448 10.6714 31.4791 10.4337C31.2803 10.3052 31.1392 10.1638 30.9211 10.0482L29.1636 9.02023C29.0224 8.94955 29.1828 8.99453 28.9904 8.94313C28.9262 8.93028 28.8813 8.91743 28.7723 8.91743C28.6632 9.07805 28.7017 8.94955 28.6312 9.18727L27.9384 10.4594L27.4317 11.0183C27.4189 11.0248 27.3932 11.044 27.3868 11.0569L27.0212 11.346C27.0148 11.346 27.0019 11.3588 26.9955 11.3588L26.8159 11.4681C26.4567 11.6608 26.136 11.8279 25.7383 11.9049C25.3021 11.9949 24.7569 12.1041 24.3079 11.9563C23.9872 11.8471 23.8204 11.77 23.6472 11.4681C23.365 10.9669 23.6151 10.2666 24.1668 10.0867C24.6479 9.92612 25.0327 10.2409 25.764 9.8426C25.9885 9.72053 26.1232 9.55991 26.3028 9.39286C26.3477 9.35431 26.3669 9.33504 26.4054 9.29649C26.4631 9.23867 26.5208 9.14872 26.5657 9.08447L26.7325 8.84033C26.9314 8.49339 27.111 8.06293 26.5593 7.93444C26.1681 7.83807 25.9051 7.70315 25.5395 7.6389C25.4368 7.62605 25.3663 7.61963 25.2636 7.5875L24.3977 7.42688C23.6344 7.25984 22.8326 7.18917 22.05 7.18917C21.5946 7.18917 21.1841 8.37775 21.1456 8.74396C21.12 8.98168 21.0302 9.23867 21.0302 9.48923L21.1905 10.5172C21.229 10.6071 21.2418 10.6007 21.2739 10.7228C21.3829 11.1019 21.5561 11.4809 21.7871 11.8086L22.2232 12.3161C22.2296 12.3226 22.2361 12.3354 22.2425 12.3418C22.2489 12.3418 22.2553 12.3547 22.2617 12.3611C22.4798 12.5667 22.7556 12.8108 23.025 12.9458L23.4355 13.1578C24.7761 13.6975 25.2059 13.2349 25.6421 13.5304C26.0975 13.8452 26.1103 14.0187 26.1103 14.5777C26.1103 14.7319 25.8794 15.0274 25.7447 15.1173C25.7383 15.1238 25.7319 15.1302 25.7255 15.1366C25.7191 15.143 25.7062 15.1495 25.6998 15.1495C25.3278 15.4065 24.9108 15.3936 24.4298 15.3615L23.6857 15.2458C23.5574 15.2009 23.5382 15.1687 23.3842 15.1302C22.73 14.9696 21.9923 14.5841 21.4535 14.1536L20.9404 13.6846C20.6132 13.3569 20.331 13.0036 20.068 12.6245L19.3624 10.9541C19.2277 10.6007 19.1443 9.81047 19.1443 9.45069C19.1443 8.94955 19.1828 8.78893 19.2726 8.38417C19.2919 8.2878 19.2919 8.25568 19.3047 8.13361C19.3432 7.90232 19.5164 7.62605 19.5035 7.39476C19.4971 7.05425 19.1187 7.27911 18.9327 7.30481L18.118 7.43973C17.9449 7.48471 17.7717 7.47186 17.5921 7.52968C17.2521 7.63248 16.8031 7.72885 16.4567 7.86377L15.9949 8.01796C15.9821 8.01796 15.9756 8.02439 15.9628 8.03081L15.7383 8.08863C15.5972 8.14003 15.6678 8.14003 15.5459 8.18501C15.4304 8.22998 15.4048 8.2107 15.2957 8.2621C14.8082 8.48055 14.2887 8.66044 13.8076 8.90458C13.7178 8.94955 13.8076 8.90458 13.7178 8.94313C13.0828 9.21939 12.4862 9.6627 11.8961 10.0289C11.3317 10.3823 10.6325 10.9155 10.1578 11.3653L7.97695 13.6589C7.97053 13.6653 7.96412 13.6782 7.95771 13.6846C7.95129 13.691 7.93205 13.7232 7.92563 13.7296C7.63699 14.16 7.29061 14.5263 7.04045 14.976L6.51448 15.8498C6.4824 15.9076 6.49523 15.8883 6.46316 15.959L6.30922 16.2545C6.26432 16.3316 6.28997 16.2802 6.24507 16.3573C5.97567 16.8071 5.49459 17.9764 5.31499 18.5096L5.10332 19.1971C4.95579 19.5697 4.8724 19.9873 4.75053 20.36C4.70563 20.5077 4.69921 20.7005 4.64148 20.8675C4.59658 21.0153 4.61583 20.9189 4.59017 21.1052C4.53886 21.5036 4.38491 21.3815 4.03854 21.4971C3.46766 21.6835 2.90319 21.9212 2.45419 22.3709C2.24252 22.5765 2.03084 22.7692 1.87048 23.0198C1.76785 23.174 1.72295 23.2061 1.63315 23.3924L1.57542 23.5017C1.43431 23.733 1.37016 24.0028 1.26112 24.2534L1.06869 25.2942Z" fill="#397789"/>
<path fill-rule="evenodd" clip-rule="evenodd" d="M22.3387 43.3157C21.6075 43.3157 20.8313 43.3542 20.1065 43.2514L17.7268 42.9687C17.5215 42.8916 17.2008 42.8916 17.0084 42.8274C16.8865 42.7888 16.7454 42.776 16.6299 42.7503C16.4439 42.7182 16.4311 42.6925 16.2835 42.6475L15.5715 42.4548C15.3919 42.4162 15.3791 42.3841 15.238 42.3391L13.9551 41.8572C13.814 41.8059 13.8204 41.7802 13.6537 41.7159L13.0571 41.4461C12.6209 41.2726 12.1527 41.0285 11.7614 40.7779C11.6844 40.7265 11.755 40.765 11.6844 40.7265L11.4664 40.6173C11.229 40.4695 10.3374 39.8656 10.1258 39.8656C9.93974 39.8656 8.45802 40.7393 8.25918 40.8743L8.01543 41.0349C7.3291 41.5103 6.71974 42.1014 6.09113 42.6346L5.19312 43.547C5.1867 43.5534 5.18029 43.5598 5.17388 43.5662L4.21172 44.697C4.15399 44.7805 4.08985 44.8512 4.03212 44.9283C3.46766 45.725 2.87112 46.573 2.4157 47.4532L2.1912 47.8901C2.18479 47.8965 2.18479 47.9094 2.17837 47.9158C2.13347 47.9929 2.17837 47.9094 2.12706 47.9929L0.927573 50.929L0.581198 52.2268C0.542712 52.4003 0.523469 52.381 0.484983 52.5416L0.132193 54.6939C0.0231493 55.7155 0.00390625 56.2809 0.00390625 57.3153C0.00390625 57.9899 0.106536 59.0435 0.266895 59.6796C0.31821 59.8916 0.298967 60.0458 0.375939 60.2257C0.529883 60.6176 0.606856 61.0609 0.812115 61.4271L1.14566 61.9604C1.46638 62.4165 1.85765 62.8277 2.36439 63.0783C2.3708 63.0847 2.38363 63.0847 2.39005 63.0911C2.44778 63.1168 2.39646 63.0911 2.44778 63.1168C2.4606 63.1168 2.46702 63.1232 2.47985 63.1297L2.53116 63.1554C3.01865 63.4509 3.71782 63.6372 4.30794 63.6372L5.10332 63.5344C5.34706 63.4895 5.62288 63.3738 5.78324 63.2646C5.78324 62.2045 5.93077 61.2151 5.9436 60.1871C5.95001 59.8209 6.06547 59.5639 6.07189 59.2041C6.07189 58.9985 6.08471 58.8829 6.11037 58.7094C6.13603 58.5231 6.18734 58.4653 6.21942 58.2854C6.25149 58.1055 6.21942 57.9642 6.2579 57.7907C6.29639 57.5915 6.32846 57.5273 6.36053 57.3153C6.41185 56.8912 6.55938 56.4351 6.64918 56.0046L6.96348 54.6811C7.0148 54.4755 7.05328 54.4883 7.09818 54.2828C7.11742 54.1928 7.11742 54.1478 7.1495 54.0515C7.39324 53.364 7.62416 52.6509 7.95771 52.0212L8.73384 50.46C8.83006 50.2801 9.25982 49.5284 9.38811 49.4321C9.38811 49.734 9.31113 49.7918 9.27265 50.0553L9.02249 51.3274C8.95834 51.5394 8.97759 51.7578 8.90703 51.9891C8.81723 52.2718 8.8493 52.3104 8.8044 52.6252C8.79157 52.7151 8.74667 52.8179 8.72101 52.9079C8.68253 53.0364 8.69536 53.1327 8.67611 53.2741C8.63763 53.576 8.58631 53.6339 8.54141 53.878C8.4901 54.1671 8.52217 54.302 8.45161 54.5654C8.36822 54.8546 8.07958 57.0454 8.07316 57.2317C8.06675 57.7843 7.96412 58.0605 7.95771 58.6323C7.95129 59.3069 7.56002 60.4313 7.97053 60.5855L9.13795 60.8874C9.23416 60.9003 9.2534 60.9003 9.31755 60.9196L9.90767 61.0609C10.0424 61.0866 10.1514 61.1444 10.2989 61.1701L11.5048 61.395C11.7999 61.4721 12.0629 61.4528 12.3644 61.5171C13.0764 61.6777 13.025 61.5749 13.6216 61.6969C13.8012 61.7355 13.8525 61.7291 14.0513 61.7548L15.8217 61.909C16.29 61.909 16.6812 61.9475 17.1495 62.0182C17.6947 62.0953 21.2803 62.1595 21.7229 62.1595C22.0244 62.1595 22.3259 62.1595 22.6273 62.1595C22.9609 62.1595 23.1661 62.1146 23.5253 62.1146L24.3913 62.076C24.6928 62.0567 25.0263 62.0889 25.3342 62.076L26.5786 61.9668C26.7518 61.9475 26.8801 61.9668 27.0532 61.9539C27.3291 61.9282 27.5856 61.9218 27.9128 61.9154C28.3938 61.8961 28.8621 61.7612 29.5933 61.7483C29.805 61.7419 29.7986 61.7162 29.9782 61.6841C30.2925 61.6263 30.5555 61.6584 30.8505 61.607C31.1135 61.5685 31.338 61.4721 31.601 61.4592C31.9346 61.4464 32.1013 61.3629 32.4221 61.3372C32.7043 61.3179 32.8967 61.2087 33.1661 61.1765C33.4868 61.1444 34.2758 60.9452 34.7056 60.8746C34.8274 60.8553 34.9429 60.7911 35.0904 60.7654L35.8281 60.5983C36.0782 60.5212 36.0526 60.1936 36.0077 59.8852C35.982 59.7245 35.9948 59.6089 35.9884 59.4483C35.9756 59.3005 35.9243 59.2106 35.9115 59.0756L35.7575 57.8292C35.7319 57.7007 35.7383 57.553 35.719 57.4181C35.6485 56.8976 35.5907 56.3258 35.4753 55.8119C35.424 55.5549 35.4304 55.2015 35.3855 54.9638L35.1225 53.3769C35.1033 53.2419 35.0648 53.1584 35.0263 53.0171C35.0006 52.895 34.9942 52.7215 34.975 52.6252L34.8339 51.8221C34.821 51.7 34.7825 51.5651 34.7505 51.4494C34.7248 51.3402 34.712 51.1732 34.6863 51.0639C34.6542 50.9162 34.6158 50.8648 34.5837 50.717C34.558 50.5885 34.558 50.415 34.5195 50.2865C34.4105 49.9203 34.186 49.1108 34.186 48.7318L34.744 48.4748C35.2187 48.1921 35.7447 47.9801 36.2129 47.6909C36.2258 47.6845 36.2322 47.6781 36.2386 47.6717C36.2514 47.6717 36.2578 47.6652 36.2643 47.6588L37.6177 46.8364C37.6241 46.83 37.6305 46.8236 37.6369 46.8172L37.8678 46.6758C38.4323 46.2646 39.016 45.8984 39.5612 45.4551C39.651 45.378 39.6703 45.3523 39.7793 45.2688C39.9589 45.1339 40.0808 45.0504 40.2411 44.909L41.5176 43.804C41.524 43.7975 41.5304 43.7911 41.5368 43.7847L42.8197 42.5254C42.8646 42.4804 42.8774 42.4612 42.9159 42.4162L44.558 40.4888C44.5644 40.4823 44.5708 40.4759 44.5773 40.4695C44.5837 40.4631 44.5901 40.4502 44.5965 40.4438C44.6029 40.4374 44.6093 40.4309 44.6157 40.4245L44.9172 40.0262C44.9236 40.0198 44.93 40.0133 44.9365 40.0069C44.9429 40.0005 44.9493 39.9876 44.9557 39.9812L45.4111 39.3323C45.4881 39.2359 45.5137 39.1974 45.5779 39.0882C45.6164 39.0368 45.6292 39.0239 45.6613 38.9661L46.88 36.6532C47.0789 35.9079 47.3354 35.1112 47.0788 34.3403L46.9121 33.8134C46.88 33.7428 46.8928 33.7299 46.8608 33.6528C46.771 33.4215 46.5914 33.1581 46.4374 32.9718L46.1295 32.6248C45.9243 32.4257 46.0269 32.4385 46.3604 32.0723C46.4823 31.9374 46.5849 31.8218 46.7132 31.6868C46.8608 31.5455 46.9185 31.4363 47.066 31.2949L47.8165 30.4918C47.8165 30.4854 47.8293 30.4725 47.8357 30.4661C47.8357 30.4597 47.8486 30.4533 47.8486 30.4468L47.9576 30.3055C48.2463 29.8943 48.5734 29.3225 48.2848 28.8278L48.0025 28.4487C47.9961 28.4423 47.9833 28.4359 47.9769 28.4295C47.9704 28.423 47.964 28.4166 47.9576 28.4102L47.8037 28.3202C47.7908 28.3202 47.7844 28.3138 47.7716 28.3074C47.7652 28.301 47.7331 28.2817 47.7267 28.2753C47.4894 28.1404 47.2071 28.1789 46.9313 28.211C46.7517 28.2303 46.5529 28.3781 46.4118 28.468L45.8216 28.9884C45.8152 28.9949 45.8088 29.0013 45.8024 29.0077L45.6356 29.1683C45.5907 29.2133 45.5971 29.2069 45.5522 29.2518L45.3662 29.4317C45.3598 29.4382 45.3534 29.451 45.347 29.4574C45.3406 29.4639 45.3341 29.4703 45.3277 29.4767L45.2892 29.5217C45.2828 29.5281 45.2764 29.5345 45.27 29.541L43.7241 30.993C43.6472 31.0701 43.6087 31.0958 43.5317 31.1664C43.4676 31.2178 43.4868 31.1921 43.4227 31.2628C42.8518 31.8346 43.474 31.3592 42.2232 31.7511C41.7229 31.9053 41.2482 32.2908 40.8954 32.6762L40.0231 33.6014C39.7216 33.9034 39.4522 34.2375 39.1379 34.5266L38.4772 35.092C38.4644 35.0984 38.4387 35.1241 38.4323 35.1305C38.4259 35.1369 38.4131 35.1434 38.4066 35.1498C37.8935 35.5931 37.297 35.9593 36.7389 36.3512L35.8024 36.9294C35.719 36.9744 35.6356 37.0258 35.5715 37.0708C35.3855 37.2314 35.1931 37.4627 35.0648 37.6683C35.0006 37.7775 34.9493 37.7968 34.8723 37.8867C34.7825 37.9895 34.8082 37.9767 34.6992 38.0795L34.2052 38.5356C34.1988 38.5421 34.1924 38.5485 34.186 38.5549L33.1148 39.4929C32.5952 39.8527 32.1077 40.2575 31.5497 40.553L30.2732 41.2919C30.2668 41.2919 30.2283 41.3047 30.2155 41.3111L28.9775 41.8765C28.5606 41.9986 28.1758 42.2235 27.7524 42.3327C27.2393 42.4676 26.8287 42.6668 26.2899 42.7567C26.0398 42.8017 25.9051 42.8852 25.6998 42.9045C25.3983 42.9302 25.2636 42.9752 25.0327 43.0201C24.821 43.0587 24.5581 43.0587 24.3785 43.1037C24.1219 43.1615 24.0449 43.1872 23.7306 43.1936C23.365 43.1936 22.6081 43.3157 22.3387 43.3157Z" fill="#397789"/>
<path fill-rule="evenodd" clip-rule="evenodd" d="M23.5253 72.2143C23.5702 72.4006 23.6793 72.5805 23.7498 72.7347L24.4041 74.418C24.4041 74.4309 24.4105 74.4373 24.4105 74.4501C24.4169 74.4566 24.4234 74.4694 24.4234 74.4758C24.4683 74.5786 24.4747 74.5401 24.5067 74.6814L24.6607 75.1055C24.6928 75.2339 24.6735 75.2275 24.7184 75.3367C24.8595 75.6901 24.9237 76.0756 25.0584 76.4354C25.1097 76.5832 25.1097 76.7502 25.1546 76.9044C25.2252 77.1293 25.2316 77.11 25.2508 77.3863C25.2829 77.7717 25.4176 77.9709 25.4112 78.3757C25.4112 78.7483 25.4946 79.076 25.4946 79.4422C25.4946 79.8791 25.4112 80.2453 25.4112 80.7143C25.4176 81.6908 25.2957 82.3783 25.5651 83.3484L26.5273 84.9739C26.7069 85.1538 26.8352 85.3016 27.0468 85.4429C27.0917 85.475 27.143 85.5136 27.1879 85.5457L27.3162 85.6228C27.7716 85.8927 27.9513 85.9376 28.4131 86.1239L29.2662 86.2974C29.6382 86.2974 30.0359 86.3295 30.3887 86.2332C30.6068 86.1753 30.8441 86.1818 31.043 86.1047C31.1713 86.0533 31.2546 86.0533 31.3637 86.0147C31.4984 85.9697 31.5112 85.9376 31.6138 85.8991L33.3072 84.8069C33.7883 84.3314 34.0834 83.6633 34.295 83.0401L34.8018 81.164C34.8339 81.0291 34.8274 80.9713 34.8467 80.8042C34.8723 80.5408 34.9493 80.393 34.9878 80.1232L35.0968 79.4486C35.1417 79.2623 35.1353 78.9346 35.1738 78.7098C35.2829 78.0351 35.424 77.3156 35.456 76.6474C35.4689 76.4097 35.5587 76.1977 35.5779 75.9471L35.8024 73.8334C35.873 73.39 35.8666 72.7219 35.9243 72.3557C36.0141 71.7646 35.9949 71.1157 36.0269 70.4925C36.059 69.8693 36.1552 69.2461 36.1488 68.6036C36.1488 68.3402 36.1488 68.0832 36.1488 67.8198C36.1488 67.6463 36.1809 67.5628 36.1809 67.4471C36.2065 66.8304 36.2386 64.5753 36.168 64.1127C36.1039 63.7015 36.2001 63.2325 36.1103 62.8534C35.7832 62.7699 35.5266 62.9626 35.2251 63.0397C35.084 63.0783 35.0648 63.0976 34.9621 63.1425L34.7312 63.2389C34.6414 63.2839 34.712 63.2582 34.6286 63.2967L32.5696 64.4789C32.467 64.5496 32.4413 64.556 32.3451 64.6266C31.9666 64.9093 31.5369 65.2049 31.2162 65.5454L31.0686 65.6867C30.9852 65.7574 30.9532 65.7831 30.8762 65.8602L29.5356 67.3572C29.5292 67.3636 29.5228 67.37 29.5164 67.3764C29.5099 67.3829 29.5035 67.3893 29.4971 67.3957C29.2341 67.6913 29.0096 68.186 28.7595 68.5008C28.6889 68.5907 28.6697 68.61 28.6183 68.6871L27.0532 70.3254C27.0468 70.3318 27.034 70.3383 27.0276 70.3447L26.9185 70.4411C26.8544 70.4989 26.8095 70.531 26.7389 70.5824C26.2643 70.9358 25.7832 71.2699 25.2444 71.514L24.0064 72.0023C23.7114 72.073 23.7755 72.0537 23.5253 72.2143Z" fill="#397789"/>
<path fill-rule="evenodd" clip-rule="evenodd" d="M7.62416 63.0205V66.5477C7.62416 67.3122 7.66906 67.9483 7.66906 68.6871C7.66265 69.2204 7.79093 69.9849 7.79093 70.7366C7.79093 71.5911 7.89356 71.7581 7.91281 72.2143C7.93205 72.6319 7.94488 73.5057 8.00902 73.8012C8.08599 74.1225 8.07316 74.4887 8.11165 74.8099L8.36181 76.7309C8.38105 77.0779 8.4452 77.3477 8.50293 77.6625C8.52858 77.8167 8.50934 77.9709 8.535 78.1637C8.54783 78.3307 8.64404 78.6005 8.69536 79.1081C8.70819 79.288 8.7595 79.3458 8.79157 79.545C8.82364 79.7184 8.8044 79.8662 8.83647 80.0333C8.87496 80.2581 8.91986 80.2645 8.95834 80.4894C8.99042 80.6886 8.95835 80.7978 9.01607 80.9584C9.10588 81.2026 9.0738 81.1383 9.11229 81.4403L9.23416 81.8515C9.33038 82.192 9.36886 82.5903 9.50998 82.9308L9.74731 83.5155C10.0039 84.1323 10.4208 84.6591 10.9147 85.096L11.2098 85.3337C11.3252 85.4172 11.4215 85.4943 11.5241 85.5586C11.6331 85.6228 11.7358 85.6742 11.8576 85.7513C12.2168 85.9697 12.6851 86.1304 13.1148 86.1818C13.2688 86.201 13.4163 86.2653 13.5382 86.2846C14.0129 86.3681 14.5452 86.336 15.0007 86.2139C15.1546 86.1753 15.3021 86.1818 15.4497 86.1239C15.578 86.0725 15.4753 86.0918 15.6549 86.0468C16.1424 85.9248 16.957 85.3787 17.2842 85.051C17.5857 84.7426 17.8102 84.3828 18.0026 84.0038L18.0924 83.8496C18.0988 83.8431 18.1052 83.8303 18.1052 83.8239L18.1822 83.6504C18.3554 83.3099 18.3939 82.9051 18.458 82.5325C18.5863 81.8129 18.5029 81.5688 18.4516 80.8749C18.3939 80.0911 18.3425 78.9218 18.4388 78.1637L18.6697 76.8337C18.7017 76.6667 18.6953 76.5639 18.7402 76.4097L19.882 73.1587C19.9205 73.0367 19.9141 73.0624 19.9654 72.9596C20.0039 72.8953 20.0167 72.8439 20.0423 72.7861C20.0937 72.664 20.0872 72.709 20.1386 72.5998C20.1835 72.497 20.2412 72.2978 20.2476 72.1758C20.145 72.1051 20.1835 72.0922 20.0488 72.0473C19.9782 72.0151 19.8884 72.0151 19.7729 71.9959C19.6318 71.9637 19.619 71.9445 19.5292 71.9123C19.1059 71.7646 18.9712 71.771 18.5157 71.5333C18.4388 71.4883 18.4644 71.5012 18.4131 71.469L16.6492 70.3254C16.6427 70.319 16.6299 70.3126 16.6235 70.3062C16.2002 69.9271 15.7768 69.5287 15.4304 69.079L14.6992 68.0896C14.6415 67.9997 14.635 67.9611 14.5773 67.884C14.5132 67.7941 14.4811 67.7684 14.4105 67.6784L14.1219 67.2672C14.077 67.1966 14.0257 67.1452 13.9744 67.0873L13.3201 66.3035C13.3201 66.2971 13.3073 66.2907 13.3073 66.2842L12.3066 65.3077C12.2361 65.237 12.2104 65.192 12.1142 65.1342L10.2925 63.8814C10.2348 63.8493 10.254 63.8557 10.1835 63.8236L8.38747 62.9948C8.21428 62.9305 7.62416 62.7056 7.62416 63.0205Z" fill="#397789"/>
<path fill-rule="evenodd" clip-rule="evenodd" d="M22.3836 64.0484H21.229C20.9917 64.0484 20.9339 64.0163 20.7415 64.0034L19.7152 63.9649C19.3175 63.9649 19.061 63.9199 18.6953 63.9263C18.3554 63.9263 17.9577 63.9392 17.6241 63.9263C17.3291 63.9071 16.9763 63.8235 16.6812 63.8043C15.9821 63.7465 15.9179 63.7657 15.2316 63.6501C15.0648 63.6244 14.9045 63.6437 14.7313 63.618C14.5901 63.5987 13.2816 63.2646 13.2816 63.6372C13.2816 63.9263 13.7563 64.1769 13.9359 64.3761L15.0712 65.5839C15.2252 65.7574 15.3214 65.9052 15.4689 66.0851L17.1302 68.2374C17.1366 68.2438 17.1431 68.2502 17.1495 68.2566L17.6049 68.7128C17.6113 68.7128 17.6177 68.7257 17.6241 68.7321L17.7717 68.867C18.0796 69.1818 18.4452 69.4388 18.83 69.6508L19.6126 70.017C19.7409 70.0684 19.6896 70.062 19.7794 70.1006C19.9333 70.1777 19.9846 70.1391 20.1386 70.1905L20.8826 70.3897C21.2803 70.5053 22.3387 70.4796 22.7556 70.4154L24.3977 69.9271C24.4811 69.8821 24.3913 69.9271 24.4811 69.8821C24.5196 69.8693 24.526 69.8693 24.5645 69.85C24.6222 69.8243 24.6094 69.8307 24.6479 69.805C25.1931 69.4966 25.1738 69.5159 25.6485 69.169C25.6549 69.1625 25.6677 69.1561 25.6742 69.1497C26.0013 68.912 26.2963 68.6357 26.5786 68.3337C26.585 68.3273 26.5914 68.3209 26.5978 68.3145L28.3489 66.0015C28.5606 65.706 29.3816 64.8001 29.728 64.5046L30.3695 63.9585C30.6132 63.7336 30.9724 63.3353 30.3117 63.4445C30.1193 63.4766 29.9589 63.4573 29.7665 63.483C29.4137 63.528 29.1443 63.6372 28.7723 63.6372C28.3361 63.6308 28.2078 63.7529 27.7909 63.7593L26.7325 63.8492C26.0911 63.9585 24.7826 63.9392 24.0192 63.9649C23.4869 63.9777 22.9609 64.0484 22.3836 64.0484Z" fill="#397789"/>
</svg>
